<svg xmlns="http://www.w3.org/2000/svg" xmlns:xlink="http://www.w3.org/1999/xlink" viewBox="0,0,256,256" width="96px" height="96px" fill-rule="nonzero"><g transform="translate(11.52,11.52) scale(0.91,0.91)"><g fill-opacity="0.01961" fill="#dddddd" fill-rule="nonzero" stroke="none" stroke-width="1" stroke-linecap="butt" stroke-linejoin="miter" stroke-miterlimit="10" stroke-dasharray="" stroke-dashoffset="0" font-family="none" font-weight="none" font-size="none" text-anchor="none" style="mix-blend-mode: normal"><path d="M-12.65934,268.65934v-281.31868h281.31868v281.31868z" id="bgRectangle"></path></g><g fill="none" fill-rule="none" stroke="none" stroke-width="1" stroke-linecap="butt" stroke-linejoin="miter" stroke-miterlimit="10" stroke-dasharray="" stroke-dashoffset="0" font-family="none" font-weight="none" font-size="none" text-anchor="none" style="mix-blend-mode: normal"><g transform="translate(-17.87733,234.31624) rotate(-90) scale(5.33333,5.33333)"><path d="M4.868,43.303l2.694,-9.835c-1.662,-2.878 -2.536,-6.144 -2.535,-9.489c0.005,-10.465 8.521,-18.979 18.987,-18.979c5.079,0.002 9.845,1.979 13.43,5.566c3.584,3.588 5.558,8.356 5.556,13.428c-0.004,10.465 -8.522,18.98 -18.986,18.98c-0.001,0 0,0 0,0h-0.008c-3.177,-0.001 -6.3,-0.798 -9.073,-2.311z" fill="#ffffff" fill-rule="nonzero"></path><path d="M4.868,43.803c-0.132,0 -0.26,-0.052 -0.355,-0.148c-0.125,-0.127 -0.174,-0.312 -0.127,-0.483l2.639,-9.636c-1.636,-2.906 -2.499,-6.206 -2.497,-9.556c0.004,-10.742 8.745,-19.48 19.486,-19.48c5.21,0.002 10.105,2.031 13.784,5.713c3.679,3.683 5.704,8.577 5.702,13.781c-0.004,10.741 -8.746,19.48 -19.486,19.48c-3.189,-0.001 -6.344,-0.788 -9.144,-2.277l-9.875,2.589c-0.042,0.012 -0.084,0.017 -0.127,0.017z" fill="#ffffff" fill-rule="nonzero"></path><path d="M24.014,5c5.079,0.002 9.845,1.979 13.43,5.566c3.584,3.588 5.558,8.356 5.556,13.428c-0.004,10.465 -8.522,18.98 -18.986,18.98h-0.008c-3.177,-0.001 -6.3,-0.798 -9.073,-2.311l-10.065,2.64l2.694,-9.835c-1.662,-2.878 -2.536,-6.144 -2.535,-9.489c0.005,-10.465 8.521,-18.979 18.987,-18.979M24.014,42.974v0v0M24.014,42.974v0v0M24.014,4v0c-11.016,0 -19.982,8.962 -19.987,19.979c-0.001,3.367 0.849,6.685 2.461,9.622l-2.585,9.439c-0.094,0.345 0.002,0.713 0.254,0.967c0.19,0.192 0.447,0.297 0.711,0.297c0.085,0 0.17,-0.011 0.254,-0.033l9.687,-2.54c2.828,1.468 5.998,2.243 9.197,2.244c11.024,0 19.99,-8.963 19.995,-19.98c0.002,-5.339 -2.075,-10.359 -5.848,-14.135c-3.775,-3.777 -8.796,-5.858 -14.139,-5.86z" fill="#baa95c" fill-rule="nonzero"></path><path d="M35.176,12.832c-2.98,-2.982 -6.941,-4.625 -11.157,-4.626c-8.704,0 -15.783,7.076 -15.787,15.774c-0.001,2.981 0.833,5.883 2.413,8.396l0.376,0.597l-1.595,5.821l5.973,-1.566l0.577,0.342c2.422,1.438 5.2,2.198 8.032,2.199h0.006c8.698,0 15.777,-7.077 15.78,-15.776c0.001,-4.215 -1.638,-8.179 -4.618,-11.161z" fill="#40c351" fill-rule="nonzero"></path><path d="M19.268,16.045c-0.355,-0.79 -0.729,-0.806 -1.068,-0.82c-0.277,-0.012 -0.593,-0.011 -0.909,-0.011c-0.316,0 -0.83,0.119 -1.265,0.594c-0.435,0.475 -1.661,1.622 -1.661,3.956c0,2.334 1.7,4.59 1.937,4.906c0.237,0.316 3.282,5.259 8.104,7.161c4.007,1.58 4.823,1.266 5.693,1.187c0.87,-0.079 2.807,-1.147 3.202,-2.255c0.395,-1.108 0.395,-2.057 0.277,-2.255c-0.119,-0.198 -0.435,-0.316 -0.909,-0.554c-0.474,-0.238 -2.807,-1.385 -3.242,-1.543c-0.435,-0.158 -0.751,-0.237 -1.068,0.238c-0.316,0.474 -1.225,1.543 -1.502,1.859c-0.277,0.317 -0.554,0.357 -1.028,0.119c-0.474,-0.238 -2.002,-0.738 -3.815,-2.354c-1.41,-1.257 -2.362,-2.81 -2.639,-3.285c-0.277,-0.474 -0.03,-0.731 0.208,-0.968c0.213,-0.213 0.474,-0.554 0.712,-0.831c0.237,-0.277 0.316,-0.475 0.474,-0.791c0.158,-0.317 0.079,-0.594 -0.04,-0.831c-0.117,-0.238 -1.039,-2.584 -1.461,-3.522z" fill="#ffffff" fill-rule="evenodd"></path></g></g><g fill="none" fill-rule="nonzero" stroke="none" stroke-width="none" stroke-linecap="butt" stroke-linejoin="none" stroke-miterlimit="10" stroke-dasharray="" stroke-dashoffset="0" font-family="none" font-weight="none" font-size="none" text-anchor="none" style="mix-blend-mode: normal"><path d="M19.61333,240.24583c0.48,0.07333 0.95667,0.17667 1.43,0.31c0.46667,0.13333 0.88667,0.28667 1.26,0.46v1.02h-8.88v-1.02c0.34,-0.19333 0.7,-0.35333 1.08,-0.48c0.38667,-0.12 0.75667,-0.21667 1.11,-0.29v-15.09c-0.40667,-0.07333 -0.79667,-0.17667 -1.17,-0.31c-0.37333,-0.13333 -0.71333,-0.29 -1.02,-0.47v-1.01h3.36c0.71333,0 1.52667,-0.03667 2.44,-0.11c0.92,-0.06667 1.76,-0.1 2.52,-0.1c0.94667,0 1.86667,0.09333 2.76,0.28c0.9,0.18667 1.7,0.5 2.4,0.94c0.70667,0.44667 1.27333,1.04 1.7,1.78c0.42667,0.73333 0.64,1.65333 0.64,2.76c0,1.04667 -0.21,1.95333 -0.63,2.72c-0.42,0.76 -0.97667,1.39 -1.67,1.89c-0.69333,0.5 -1.49333,0.87 -2.4,1.11c-0.90667,0.24 -1.84,0.36 -2.8,0.36c-0.08667,0 -0.22667,0 -0.42,0c-0.2,0 -0.41,-0.00667 -0.63,-0.02c-0.22,-0.00667 -0.43333,-0.01333 -0.64,-0.02c-0.20667,-0.01333 -0.35333,-0.02667 -0.44,-0.04zM21.05333,224.88583c-0.35333,0 -0.63333,0.01333 -0.84,0.04c-0.20667,0.02667 -0.40667,0.06667 -0.6,0.12v8.11c0.16,0.05333 0.4,0.08333 0.72,0.09c0.32,0.00667 0.57667,0.01 0.77,0.01c0.48,0 0.94333,-0.08 1.39,-0.24c0.44667,-0.16 0.84333,-0.40667 1.19,-0.74c0.34667,-0.34 0.62667,-0.77667 0.84,-1.31c0.21333,-0.53333 0.32,-1.17333 0.32,-1.92c0,-1.42 -0.34667,-2.47 -1.04,-3.15c-0.69333,-0.67333 -1.61,-1.01 -2.75,-1.01zM42.12333,239.79583c-0.14667,0.3 -0.37333,0.60667 -0.68,0.92c-0.31333,0.30667 -0.69667,0.58 -1.15,0.82c-0.45333,0.24 -0.97667,0.43667 -1.57,0.59c-0.6,0.15333 -1.24667,0.23 -1.94,0.23c-1.1,0 -2.07667,-0.16667 -2.93,-0.5c-0.85333,-0.32667 -1.56333,-0.79667 -2.13,-1.41c-0.57333,-0.61333 -1.00667,-1.34667 -1.3,-2.2c-0.29333,-0.85333 -0.44,-1.81333 -0.44,-2.88c0,-2.27333 0.59667,-4.00667 1.79,-5.2c1.19333,-1.19333 2.84667,-1.79 4.96,-1.79c0.90667,0 1.75667,0.12667 2.55,0.38c0.78667,0.24667 1.44333,0.65333 1.97,1.22c0.52667,0.57333 0.89,1.32 1.09,2.24c0.20667,0.92667 0.19333,2.05667 -0.04,3.39h-8.18c0.01333,1.40667 0.37333,2.52667 1.08,3.36c0.7,0.83333 1.73333,1.25 3.1,1.25c0.58667,0 1.19667,-0.08667 1.83,-0.26c0.63333,-0.18 1.12667,-0.41333 1.48,-0.7zM36.62333,229.89583c-0.35333,0 -0.66667,0.06333 -0.94,0.19c-0.28,0.12667 -0.52,0.35333 -0.72,0.68c-0.20667,0.32667 -0.37333,0.77 -0.5,1.33c-0.12,0.56 -0.20667,1.26667 -0.26,2.12h4.29c0.12667,-1.38667 0.04667,-2.45333 -0.24,-3.2c-0.28667,-0.74667 -0.83,-1.12 -1.63,-1.12zM53.50333,239.39583h-0.1c-0.09333,0.38667 -0.25333,0.76 -0.48,1.12c-0.23333,0.35333 -0.51,0.66667 -0.83,0.94c-0.32,0.28 -0.68333,0.5 -1.09,0.66c-0.41333,0.16 -0.85,0.24 -1.31,0.24c-1.76,0 -3.09667,-0.55667 -4.01,-1.67c-0.92,-1.11333 -1.38,-2.81667 -1.38,-5.11c0,-1.17333 0.16,-2.2 0.48,-3.08c0.32,-0.88 0.77,-1.62 1.35,-2.22c0.58,-0.60667 1.27667,-1.06 2.09,-1.36c0.82,-0.30667 1.72667,-0.46 2.72,-0.46c0.32,0 0.59333,0.01 0.82,0.03c0.22,0.02 0.42333,0.04333 0.61,0.07c0.18667,0.02667 0.36333,0.07 0.53,0.13c0.17333,0.06 0.36667,0.12667 0.58,0.2v-4.69l-2.03,-0.22v-1.04c0.24667,-0.10667 0.59,-0.20333 1.03,-0.29c0.43333,-0.08667 0.89,-0.17 1.37,-0.25c0.48,-0.08 0.95,-0.15667 1.41,-0.23c0.46667,-0.07333 0.85,-0.13667 1.15,-0.19h0.91v18.16l1.76,0.22v0.93c-0.25333,0.12667 -0.57333,0.24333 -0.96,0.35c-0.39333,0.10667 -0.80333,0.20333 -1.23,0.29c-0.42667,0.08667 -0.84,0.16333 -1.24,0.23c-0.4,0.06 -0.73333,0.10667 -1,0.14h-0.91zM50.97333,240.21583c0.62,0 1.14333,-0.19333 1.57,-0.58c0.42667,-0.39333 0.74,-1.06 0.94,-2v-7.18c-0.23333,-0.14 -0.52333,-0.25333 -0.87,-0.34c-0.34667,-0.09333 -0.77667,-0.14 -1.29,-0.14c-1.03333,0 -1.77333,0.46667 -2.22,1.4c-0.44,0.93333 -0.66,2.29 -0.66,4.07c0,1.44 0.19333,2.59667 0.58,3.47c0.39333,0.86667 1.04333,1.3 1.95,1.3zM67.64333,242.03583h-7.36v-1.04c0.26667,-0.14667 0.54,-0.26667 0.82,-0.36c0.28667,-0.1 0.6,-0.19333 0.94,-0.28v-9.76l-1.76,-0.22v-1.04c0.26667,-0.10667 0.6,-0.21333 1,-0.32c0.4,-0.10667 0.82,-0.2 1.26,-0.28c0.44667,-0.08 0.88333,-0.15 1.31,-0.21c0.42667,-0.06 0.8,-0.11 1.12,-0.15h0.91v11.98c0.35333,0.08667 0.67333,0.18 0.96,0.28c0.28,0.09333 0.54667,0.21333 0.8,0.36zM61.61333,226.45583l2.88,-4.77c0.14,-0.03333 0.37667,-0.04667 0.71,-0.04c0.32667,0.00667 0.66667,0.03667 1.02,0.09c0.36,0.05333 0.68667,0.13 0.98,0.23c0.29333,0.1 0.48333,0.20333 0.57,0.31v0.64l-5.09,4.13zM77.40333,236.75583c0,-1.12 0.02667,-2.16 0.08,-3.12c0.05333,-0.96 0.08,-1.97333 0.08,-3.04l-1.76,-0.22v-1.04c0.28,-0.10667 0.63,-0.21333 1.05,-0.32c0.42,-0.10667 0.85,-0.2 1.29,-0.28c0.44667,-0.08 0.88,-0.15 1.3,-0.21c0.41333,-0.06 0.76333,-0.11 1.05,-0.15h0.91c0,1.33333 -0.02667,2.64667 -0.08,3.94c-0.05333,1.28667 -0.08,2.55333 -0.08,3.8c0,1.45333 0.14667,2.5 0.44,3.14c0.29333,0.64 0.84,0.96 1.64,0.96c0.54667,0 1.05667,-0.20667 1.53,-0.62c0.47333,-0.42 0.86,-1.09333 1.16,-2.02v-6.98l-1.73,-0.22v-1.04c0.26667,-0.10667 0.6,-0.21333 1,-0.32c0.4,-0.10667 0.81667,-0.2 1.25,-0.28c0.43333,-0.08 0.86333,-0.15 1.29,-0.21c0.42667,-0.06 0.8,-0.11 1.12,-0.15h0.91v11.76l1.76,0.22v0.93c-0.24667,0.10667 -0.55667,0.21333 -0.93,0.32c-0.37333,0.10667 -0.76667,0.21 -1.18,0.31c-0.40667,0.09333 -0.81,0.17333 -1.21,0.24c-0.4,0.06 -0.76,0.10667 -1.08,0.14h-0.91l-0.18,-3.17h-0.11c-0.08667,0.37333 -0.24667,0.75 -0.48,1.13c-0.23333,0.38667 -0.53,0.73333 -0.89,1.04c-0.36667,0.31333 -0.8,0.56667 -1.3,0.76c-0.49333,0.2 -1.04333,0.3 -1.65,0.3c-0.67333,0 -1.27333,-0.08667 -1.8,-0.26c-0.52667,-0.16667 -0.97667,-0.46333 -1.35,-0.89c-0.37333,-0.42667 -0.65667,-1 -0.85,-1.72c-0.19333,-0.72 -0.29,-1.63 -0.29,-2.73zM108.94333,242.03583h-7.06v-1.04c0.22667,-0.12667 0.45333,-0.24 0.68,-0.34c0.22,-0.09333 0.48,-0.19333 0.78,-0.3v-6.27c0,-1.12 -0.16,-1.99667 -0.48,-2.63c-0.32,-0.62667 -0.88667,-0.94 -1.7,-0.94c-0.68,0 -1.26333,0.21667 -1.75,0.65c-0.48667,0.43333 -0.85667,1.02333 -1.11,1.77v7.42c0.28667,0.06667 0.54,0.15 0.76,0.25c0.22667,0.1 0.46333,0.23 0.71,0.39v1.04h-7.07v-1.04c0.44667,-0.23333 1.03333,-0.44667 1.76,-0.64v-9.76l-1.76,-0.22v-1.04c0.23333,-0.10667 0.53667,-0.20667 0.91,-0.3c0.37333,-0.1 0.77667,-0.19333 1.21,-0.28c0.44,-0.09333 0.88667,-0.17 1.34,-0.23c0.45333,-0.06 0.86667,-0.11 1.24,-0.15h0.9v2.75h0.03c0.37333,-0.74667 0.93333,-1.39 1.68,-1.93c0.74667,-0.54667 1.65333,-0.82 2.72,-0.82c0.69333,0 1.31667,0.08667 1.87,0.26c0.54667,0.16667 1.01333,0.46333 1.4,0.89c0.38,0.42667 0.67333,1 0.88,1.72c0.2,0.72 0.3,1.63 0.3,2.73v6.38c0.71333,0.12 1.3,0.33333 1.76,0.64zM129.93333,242.03583h-9.17v-1.02c0.35333,-0.14 0.75667,-0.28667 1.21,-0.44c0.45333,-0.14667 0.91,-0.25667 1.37,-0.33v-15.15h-3.09l-1.71,4.56h-1.09c-0.07333,-0.35333 -0.14333,-0.80667 -0.21,-1.36c-0.07333,-0.54667 -0.13667,-1.11333 -0.19,-1.7c-0.05333,-0.58667 -0.09667,-1.17 -0.13,-1.75c-0.04,-0.58 -0.06,-1.07333 -0.06,-1.48h16.99c0,0.42667 -0.01667,0.92333 -0.05,1.49c-0.04,0.57333 -0.08667,1.15333 -0.14,1.74c-0.05333,0.58667 -0.11333,1.15 -0.18,1.69c-0.07333,0.54 -0.14667,0.99667 -0.22,1.37h-1.12l-1.7,-4.56h-3.1v15.15c0.46667,0.08667 0.92667,0.19333 1.38,0.32c0.45333,0.12667 0.85667,0.27667 1.21,0.45zM135.34333,236.75583c0,-1.12 0.02667,-2.16 0.08,-3.12c0.05333,-0.96 0.08,-1.97333 0.08,-3.04l-1.76,-0.22v-1.04c0.28667,-0.10667 0.64,-0.21333 1.06,-0.32c0.41333,-0.10667 0.84333,-0.2 1.29,-0.28c0.44667,-0.08 0.87667,-0.15 1.29,-0.21c0.42,-0.06 0.77333,-0.11 1.06,-0.15h0.9c0,1.33333 -0.02667,2.64667 -0.08,3.94c-0.05333,1.28667 -0.08,2.55333 -0.08,3.8c0,1.45333 0.14667,2.5 0.44,3.14c0.29333,0.64 0.84,0.96 1.64,0.96c0.55333,0 1.06667,-0.20667 1.54,-0.62c0.46667,-0.42 0.85333,-1.09333 1.16,-2.02v-6.98l-1.74,-0.22v-1.04c0.26667,-0.10667 0.6,-0.21333 1,-0.32c0.4,-0.10667 0.82,-0.2 1.26,-0.28c0.43333,-0.08 0.86333,-0.15 1.29,-0.21c0.42667,-0.06 0.8,-0.11 1.12,-0.15h0.91v11.76l1.76,0.22v0.93c-0.25333,0.10667 -0.56667,0.21333 -0.94,0.32c-0.37333,0.10667 -0.76333,0.21 -1.17,0.31c-0.40667,0.09333 -0.81,0.17333 -1.21,0.24c-0.4,0.06 -0.76,0.10667 -1.08,0.14h-0.91l-0.19,-3.17h-0.1c-0.09333,0.37333 -0.25333,0.75 -0.48,1.13c-0.23333,0.38667 -0.53333,0.73333 -0.9,1.04c-0.36,0.31333 -0.79,0.56667 -1.29,0.76c-0.5,0.2 -1.05,0.3 -1.65,0.3c-0.68,0 -1.28,-0.08667 -1.8,-0.26c-0.52667,-0.16667 -0.97667,-0.46333 -1.35,-0.89c-0.37333,-0.42667 -0.65667,-1 -0.85,-1.72c-0.2,-0.72 -0.3,-1.63 -0.3,-2.73zM161.42333,231.76583h-3.65c-0.21333,0.10667 -0.46333,0.28333 -0.75,0.53c-0.28,0.25333 -0.53667,0.66333 -0.77,1.23v6.83c0.35333,0.03333 0.71,0.1 1.07,0.2c0.35333,0.09333 0.70667,0.24 1.06,0.44v1.04h-7.73v-1.04c0.32,-0.18 0.62333,-0.31333 0.91,-0.4c0.28,-0.09333 0.56333,-0.17333 0.85,-0.24v-9.76l-1.76,-0.22v-1.04c0.28667,-0.12 0.63667,-0.23333 1.05,-0.34c0.42,-0.10667 0.85333,-0.2 1.3,-0.28c0.44,-0.08 0.87,-0.14667 1.29,-0.2c0.42,-0.05333 0.77,-0.1 1.05,-0.14h0.91v3.55h0.11c0.14,-0.39333 0.34667,-0.80333 0.62,-1.23c0.28,-0.42667 0.60667,-0.81667 0.98,-1.17c0.37333,-0.35333 0.78,-0.63667 1.22,-0.85c0.44667,-0.21333 0.91,-0.31333 1.39,-0.3c0.19333,0.25333 0.36333,0.60667 0.51,1.06c0.14,0.45333 0.25333,0.88333 0.34,1.29zM178.38333,242.03583h-7.06v-1.04c0.22667,-0.12667 0.45333,-0.24 0.68,-0.34c0.22,-0.09333 0.48,-0.19333 0.78,-0.3v-6.27c0,-1.12 -0.16,-1.99667 -0.48,-2.63c-0.32,-0.62667 -0.88667,-0.94 -1.7,-0.94c-0.68,0 -1.26333,0.21667 -1.75,0.65c-0.48667,0.43333 -0.85667,1.02333 -1.11,1.77v7.42c0.28667,0.06667 0.54,0.15 0.76,0.25c0.22667,0.1 0.46333,0.23 0.71,0.39v1.04h-7.07v-1.04c0.44667,-0.23333 1.03333,-0.44667 1.76,-0.64v-9.76l-1.76,-0.22v-1.04c0.23333,-0.10667 0.53667,-0.20667 0.91,-0.3c0.37333,-0.1 0.77667,-0.19333 1.21,-0.28c0.44,-0.09333 0.88667,-0.17 1.34,-0.23c0.45333,-0.06 0.86667,-0.11 1.24,-0.15h0.9v2.75h0.03c0.37333,-0.74667 0.93333,-1.39 1.68,-1.93c0.74667,-0.54667 1.65333,-0.82 2.72,-0.82c0.69333,0 1.31667,0.08667 1.87,0.26c0.54667,0.16667 1.01333,0.46333 1.4,0.89c0.38,0.42667 0.67333,1 0.88,1.72c0.2,0.72 0.3,1.63 0.3,2.73v6.38c0.71333,0.12 1.3,0.33333 1.76,0.64zM179.53333,235.36583c0,-1.08667 0.16333,-2.06 0.49,-2.92c0.33333,-0.86 0.80667,-1.59333 1.42,-2.2c0.61333,-0.60667 1.35333,-1.07 2.22,-1.39c0.87333,-0.32 1.86,-0.48 2.96,-0.48c1.24667,0 2.32,0.17333 3.22,0.52c0.89333,0.34667 1.63,0.82667 2.21,1.44c0.58,0.61333 1.00333,1.35333 1.27,2.22c0.26667,0.86 0.4,1.79667 0.4,2.81c0,1.08667 -0.16,2.06 -0.48,2.92c-0.32,0.86 -0.78667,1.59333 -1.4,2.2c-0.61333,0.60667 -1.36,1.07 -2.24,1.39c-0.88,0.32 -1.87333,0.48 -2.98,0.48c-1.20667,0 -2.25333,-0.17333 -3.14,-0.52c-0.89333,-0.34667 -1.63333,-0.82667 -2.22,-1.44c-0.58667,-0.61333 -1.02,-1.35333 -1.3,-2.22c-0.28667,-0.86 -0.43,-1.79667 -0.43,-2.81zM183.66333,235.36583c0,0.8 0.05,1.53333 0.15,2.2c0.1,0.66667 0.27333,1.23 0.52,1.69c0.24667,0.46667 0.58333,0.82667 1.01,1.08c0.42667,0.26 0.98,0.39 1.66,0.39c0.38667,0 0.74,-0.09333 1.06,-0.28c0.32,-0.18667 0.59667,-0.49 0.83,-0.91c0.23333,-0.41333 0.40667,-0.96333 0.52,-1.65c0.11333,-0.68667 0.17,-1.52667 0.17,-2.52c0,-0.82 -0.04667,-1.55667 -0.14,-2.21c-0.1,-0.66 -0.27,-1.22 -0.51,-1.68c-0.24,-0.46667 -0.56333,-0.82667 -0.97,-1.08c-0.41333,-0.26 -0.93,-0.39 -1.55,-0.39c-0.46,0 -0.86,0.09333 -1.2,0.28c-0.34,0.18667 -0.62333,0.49 -0.85,0.91c-0.23333,0.41333 -0.40667,0.96333 -0.52,1.65c-0.12,0.68667 -0.18,1.52667 -0.18,2.52zM200.30333,236.21583h-1.17l-1.33,-5.17v-7.41c0.17333,-0.10667 0.44,-0.18333 0.8,-0.23c0.35333,-0.04667 0.72667,-0.07 1.12,-0.07c0.38667,0 0.75333,0.02333 1.1,0.07c0.34667,0.04667 0.62,0.12333 0.82,0.23v7.41zM197.48333,240.13583c0,-0.64 0.20667,-1.15333 0.62,-1.54c0.42,-0.39333 0.96667,-0.59 1.64,-0.59c0.68,0 1.23333,0.19667 1.66,0.59c0.42667,0.38667 0.64,0.9 0.64,1.54c0,0.64 -0.21333,1.15333 -0.64,1.54c-0.42667,0.38 -0.98,0.57 -1.66,0.57c-0.67333,0 -1.22,-0.19 -1.64,-0.57c-0.41333,-0.38667 -0.62,-0.9 -0.62,-1.54z" id="strokeMainSVG" fill="#b9a557" stroke="#b9a557" stroke-width="10.66667" stroke-linejoin="round"></path><g fill="#000000" stroke="none" stroke-width="1" stroke-linejoin="miter"><path d="M19.61333,234.91583v5.33c0.48,0.07333 0.95667,0.17667 1.43,0.31c0.46667,0.13333 0.88667,0.28667 1.26,0.46v0v1.02h-8.88v-1.02c0.34,-0.19333 0.7,-0.35333 1.08,-0.48c0.38667,-0.12 0.75667,-0.21667 1.11,-0.29v0v-15.09c-0.40667,-0.07333 -0.79667,-0.17667 -1.17,-0.31c-0.37333,-0.13333 -0.71333,-0.29 -1.02,-0.47v0v-1.01h3.36c0.71333,0 1.52667,-0.03667 2.44,-0.11c0.92,-0.06667 1.76,-0.1 2.52,-0.1v0c0.94667,0 1.86667,0.09333 2.76,0.28c0.9,0.18667 1.7,0.5 2.4,0.94c0.70667,0.44667 1.27333,1.04 1.7,1.78c0.42667,0.73333 0.64,1.65333 0.64,2.76v0c0,1.04667 -0.21,1.95333 -0.63,2.72c-0.42,0.76 -0.97667,1.39 -1.67,1.89c-0.69333,0.5 -1.49333,0.87 -2.4,1.11c-0.90667,0.24 -1.84,0.36 -2.8,0.36v0c-0.08667,0 -0.22667,0 -0.42,0c-0.2,0 -0.41,-0.00667 -0.63,-0.02c-0.22,-0.00667 -0.43333,-0.01333 -0.64,-0.02c-0.20667,-0.01333 -0.35333,-0.02667 -0.44,-0.04zM21.05333,224.88583v0c-0.35333,0 -0.63333,0.01333 -0.84,0.04c-0.20667,0.02667 -0.40667,0.06667 -0.6,0.12v0v8.11c0.16,0.05333 0.4,0.08333 0.72,0.09c0.32,0.00667 0.57667,0.01 0.77,0.01v0c0.48,0 0.94333,-0.08 1.39,-0.24c0.44667,-0.16 0.84333,-0.40667 1.19,-0.74c0.34667,-0.34 0.62667,-0.77667 0.84,-1.31c0.21333,-0.53333 0.32,-1.17333 0.32,-1.92v0c0,-1.42 -0.34667,-2.47 -1.04,-3.15c-0.69333,-0.67333 -1.61,-1.01 -2.75,-1.01zM41.61333,239.25583l0.51,0.54c-0.14667,0.3 -0.37333,0.60667 -0.68,0.92c-0.31333,0.30667 -0.69667,0.58 -1.15,0.82c-0.45333,0.24 -0.97667,0.43667 -1.57,0.59c-0.6,0.15333 -1.24667,0.23 -1.94,0.23v0c-1.1,0 -2.07667,-0.16667 -2.93,-0.5c-0.85333,-0.32667 -1.56333,-0.79667 -2.13,-1.41c-0.57333,-0.61333 -1.00667,-1.34667 -1.3,-2.2c-0.29333,-0.85333 -0.44,-1.81333 -0.44,-2.88v0c0,-2.27333 0.59667,-4.00667 1.79,-5.2c1.19333,-1.19333 2.84667,-1.79 4.96,-1.79v0c0.90667,0 1.75667,0.12667 2.55,0.38c0.78667,0.24667 1.44333,0.65333 1.97,1.22c0.52667,0.57333 0.89,1.32 1.09,2.24c0.20667,0.92667 0.19333,2.05667 -0.04,3.39v0h-8.18c0.01333,1.40667 0.37333,2.52667 1.08,3.36c0.7,0.83333 1.73333,1.25 3.1,1.25v0c0.58667,0 1.19667,-0.08667 1.83,-0.26c0.63333,-0.18 1.12667,-0.41333 1.48,-0.7zM36.62333,229.89583v0c-0.35333,0 -0.66667,0.06333 -0.94,0.19c-0.28,0.12667 -0.52,0.35333 -0.72,0.68c-0.20667,0.32667 -0.37333,0.77 -0.5,1.33c-0.12,0.56 -0.20667,1.26667 -0.26,2.12v0h4.29c0.12667,-1.38667 0.04667,-2.45333 -0.24,-3.2c-0.28667,-0.74667 -0.83,-1.12 -1.63,-1.12zM53.50333,239.39583h-0.1c-0.09333,0.38667 -0.25333,0.76 -0.48,1.12c-0.23333,0.35333 -0.51,0.66667 -0.83,0.94c-0.32,0.28 -0.68333,0.5 -1.09,0.66c-0.41333,0.16 -0.85,0.24 -1.31,0.24v0c-1.76,0 -3.09667,-0.55667 -4.01,-1.67c-0.92,-1.11333 -1.38,-2.81667 -1.38,-5.11v0c0,-1.17333 0.16,-2.2 0.48,-3.08c0.32,-0.88 0.77,-1.62 1.35,-2.22c0.58,-0.60667 1.27667,-1.06 2.09,-1.36c0.82,-0.30667 1.72667,-0.46 2.72,-0.46v0c0.32,0 0.59333,0.01 0.82,0.03c0.22,0.02 0.42333,0.04333 0.61,0.07c0.18667,0.02667 0.36333,0.07 0.53,0.13c0.17333,0.06 0.36667,0.12667 0.58,0.2v0v-4.69l-2.03,-0.22v-1.04c0.24667,-0.10667 0.59,-0.20333 1.03,-0.29c0.43333,-0.08667 0.89,-0.17 1.37,-0.25c0.48,-0.08 0.95,-0.15667 1.41,-0.23c0.46667,-0.07333 0.85,-0.13667 1.15,-0.19v0h0.91v18.16l1.76,0.22v0.93c-0.25333,0.12667 -0.57333,0.24333 -0.96,0.35c-0.39333,0.10667 -0.80333,0.20333 -1.23,0.29c-0.42667,0.08667 -0.84,0.16333 -1.24,0.23c-0.4,0.06 -0.73333,0.10667 -1,0.14v0h-0.91zM50.97333,240.21583v0c0.62,0 1.14333,-0.19333 1.57,-0.58c0.42667,-0.39333 0.74,-1.06 0.94,-2v0v-7.18c-0.23333,-0.14 -0.52333,-0.25333 -0.87,-0.34c-0.34667,-0.09333 -0.77667,-0.14 -1.29,-0.14v0c-1.03333,0 -1.77333,0.46667 -2.22,1.4c-0.44,0.93333 -0.66,2.29 -0.66,4.07v0c0,1.44 0.19333,2.59667 0.58,3.47c0.39333,0.86667 1.04333,1.3 1.95,1.3zM67.64333,240.99583v1.04h-7.36v-1.04c0.26667,-0.14667 0.54,-0.26667 0.82,-0.36c0.28667,-0.1 0.6,-0.19333 0.94,-0.28v0v-9.76l-1.76,-0.22v-1.04c0.26667,-0.10667 0.6,-0.21333 1,-0.32c0.4,-0.10667 0.82,-0.2 1.26,-0.28c0.44667,-0.08 0.88333,-0.15 1.31,-0.21c0.42667,-0.06 0.8,-0.11 1.12,-0.15v0h0.91v11.98c0.35333,0.08667 0.67333,0.18 0.96,0.28c0.28,0.09333 0.54667,0.21333 0.8,0.36zM61.61333,226.45583l2.88,-4.77c0.14,-0.03333 0.37667,-0.04667 0.71,-0.04c0.32667,0.00667 0.66667,0.03667 1.02,0.09c0.36,0.05333 0.68667,0.13 0.98,0.23c0.29333,0.1 0.48333,0.20333 0.57,0.31v0v0.64l-5.09,4.13zM77.40333,236.75583v0c0,-1.12 0.02667,-2.16 0.08,-3.12c0.05333,-0.96 0.08,-1.97333 0.08,-3.04v0l-1.76,-0.22v-1.04c0.28,-0.10667 0.63,-0.21333 1.05,-0.32c0.42,-0.10667 0.85,-0.2 1.29,-0.28c0.44667,-0.08 0.88,-0.15 1.3,-0.21c0.41333,-0.06 0.76333,-0.11 1.05,-0.15v0h0.91c0,1.33333 -0.02667,2.64667 -0.08,3.94c-0.05333,1.28667 -0.08,2.55333 -0.08,3.8v0c0,1.45333 0.14667,2.5 0.44,3.14c0.29333,0.64 0.84,0.96 1.64,0.96v0c0.54667,0 1.05667,-0.20667 1.53,-0.62c0.47333,-0.42 0.86,-1.09333 1.16,-2.02v0v-6.98l-1.73,-0.22v-1.04c0.26667,-0.10667 0.6,-0.21333 1,-0.32c0.4,-0.10667 0.81667,-0.2 1.25,-0.28c0.43333,-0.08 0.86333,-0.15 1.29,-0.21c0.42667,-0.06 0.8,-0.11 1.12,-0.15v0h0.91v11.76l1.76,0.22v0.93c-0.24667,0.10667 -0.55667,0.21333 -0.93,0.32c-0.37333,0.10667 -0.76667,0.21 -1.18,0.31c-0.40667,0.09333 -0.81,0.17333 -1.21,0.24c-0.4,0.06 -0.76,0.10667 -1.08,0.14v0h-0.91l-0.18,-3.17h-0.11c-0.08667,0.37333 -0.24667,0.75 -0.48,1.13c-0.23333,0.38667 -0.53,0.73333 -0.89,1.04c-0.36667,0.31333 -0.8,0.56667 -1.3,0.76c-0.49333,0.2 -1.04333,0.3 -1.65,0.3v0c-0.67333,0 -1.27333,-0.08667 -1.8,-0.26c-0.52667,-0.16667 -0.97667,-0.46333 -1.35,-0.89c-0.37333,-0.42667 -0.65667,-1 -0.85,-1.72c-0.19333,-0.72 -0.29,-1.63 -0.29,-2.73zM108.94333,240.99583v1.04h-7.06v-1.04c0.22667,-0.12667 0.45333,-0.24 0.68,-0.34c0.22,-0.09333 0.48,-0.19333 0.78,-0.3v0v-6.27c0,-1.12 -0.16,-1.99667 -0.48,-2.63c-0.32,-0.62667 -0.88667,-0.94 -1.7,-0.94v0c-0.68,0 -1.26333,0.21667 -1.75,0.65c-0.48667,0.43333 -0.85667,1.02333 -1.11,1.77v0v7.42c0.28667,0.06667 0.54,0.15 0.76,0.25c0.22667,0.1 0.46333,0.23 0.71,0.39v0v1.04h-7.07v-1.04c0.44667,-0.23333 1.03333,-0.44667 1.76,-0.64v0v-9.76l-1.76,-0.22v-1.04c0.23333,-0.10667 0.53667,-0.20667 0.91,-0.3c0.37333,-0.1 0.77667,-0.19333 1.21,-0.28c0.44,-0.09333 0.88667,-0.17 1.34,-0.23c0.45333,-0.06 0.86667,-0.11 1.24,-0.15v0h0.9v2.75h0.03c0.37333,-0.74667 0.93333,-1.39 1.68,-1.93c0.74667,-0.54667 1.65333,-0.82 2.72,-0.82v0c0.69333,0 1.31667,0.08667 1.87,0.26c0.54667,0.16667 1.01333,0.46333 1.4,0.89c0.38,0.42667 0.67333,1 0.88,1.72c0.2,0.72 0.3,1.63 0.3,2.73v0v6.38c0.71333,0.12 1.3,0.33333 1.76,0.64zM129.93333,241.01583v1.02h-9.17v-1.02c0.35333,-0.14 0.75667,-0.28667 1.21,-0.44c0.45333,-0.14667 0.91,-0.25667 1.37,-0.33v0v-15.15h-3.09l-1.71,4.56h-1.09c-0.07333,-0.35333 -0.14333,-0.80667 -0.21,-1.36c-0.07333,-0.54667 -0.13667,-1.11333 -0.19,-1.7c-0.05333,-0.58667 -0.09667,-1.17 -0.13,-1.75c-0.04,-0.58 -0.06,-1.07333 -0.06,-1.48v0h16.99c0,0.42667 -0.01667,0.92333 -0.05,1.49c-0.04,0.57333 -0.08667,1.15333 -0.14,1.74c-0.05333,0.58667 -0.11333,1.15 -0.18,1.69c-0.07333,0.54 -0.14667,0.99667 -0.22,1.37v0h-1.12l-1.7,-4.56h-3.1v15.15c0.46667,0.08667 0.92667,0.19333 1.38,0.32c0.45333,0.12667 0.85667,0.27667 1.21,0.45zM135.34333,236.75583v0c0,-1.12 0.02667,-2.16 0.08,-3.12c0.05333,-0.96 0.08,-1.97333 0.08,-3.04v0l-1.76,-0.22v-1.04c0.28667,-0.10667 0.64,-0.21333 1.06,-0.32c0.41333,-0.10667 0.84333,-0.2 1.29,-0.28c0.44667,-0.08 0.87667,-0.15 1.29,-0.21c0.42,-0.06 0.77333,-0.11 1.06,-0.15v0h0.9c0,1.33333 -0.02667,2.64667 -0.08,3.94c-0.05333,1.28667 -0.08,2.55333 -0.08,3.8v0c0,1.45333 0.14667,2.5 0.44,3.14c0.29333,0.64 0.84,0.96 1.64,0.96v0c0.55333,0 1.06667,-0.20667 1.54,-0.62c0.46667,-0.42 0.85333,-1.09333 1.16,-2.02v0v-6.98l-1.74,-0.22v-1.04c0.26667,-0.10667 0.6,-0.21333 1,-0.32c0.4,-0.10667 0.82,-0.2 1.26,-0.28c0.43333,-0.08 0.86333,-0.15 1.29,-0.21c0.42667,-0.06 0.8,-0.11 1.12,-0.15v0h0.91v11.76l1.76,0.22v0.93c-0.25333,0.10667 -0.56667,0.21333 -0.94,0.32c-0.37333,0.10667 -0.76333,0.21 -1.17,0.31c-0.40667,0.09333 -0.81,0.17333 -1.21,0.24c-0.4,0.06 -0.76,0.10667 -1.08,0.14v0h-0.91l-0.19,-3.17h-0.1c-0.09333,0.37333 -0.25333,0.75 -0.48,1.13c-0.23333,0.38667 -0.53333,0.73333 -0.9,1.04c-0.36,0.31333 -0.79,0.56667 -1.29,0.76c-0.5,0.2 -1.05,0.3 -1.65,0.3v0c-0.68,0 -1.28,-0.08667 -1.8,-0.26c-0.52667,-0.16667 -0.97667,-0.46333 -1.35,-0.89c-0.37333,-0.42667 -0.65667,-1 -0.85,-1.72c-0.2,-0.72 -0.3,-1.63 -0.3,-2.73zM161.42333,231.76583h-3.65c-0.21333,0.10667 -0.46333,0.28333 -0.75,0.53c-0.28,0.25333 -0.53667,0.66333 -0.77,1.23v0v6.83c0.35333,0.03333 0.71,0.1 1.07,0.2c0.35333,0.09333 0.70667,0.24 1.06,0.44v0v1.04h-7.73v-1.04c0.32,-0.18 0.62333,-0.31333 0.91,-0.4c0.28,-0.09333 0.56333,-0.17333 0.85,-0.24v0v-9.76l-1.76,-0.22v-1.04c0.28667,-0.12 0.63667,-0.23333 1.05,-0.34c0.42,-0.10667 0.85333,-0.2 1.3,-0.28c0.44,-0.08 0.87,-0.14667 1.29,-0.2c0.42,-0.05333 0.77,-0.1 1.05,-0.14v0h0.91v3.55h0.11c0.14,-0.39333 0.34667,-0.80333 0.62,-1.23c0.28,-0.42667 0.60667,-0.81667 0.98,-1.17c0.37333,-0.35333 0.78,-0.63667 1.22,-0.85c0.44667,-0.21333 0.91,-0.31333 1.39,-0.3v0c0.19333,0.25333 0.36333,0.60667 0.51,1.06c0.14,0.45333 0.25333,0.88333 0.34,1.29v0zM178.38333,240.99583v1.04h-7.06v-1.04c0.22667,-0.12667 0.45333,-0.24 0.68,-0.34c0.22,-0.09333 0.48,-0.19333 0.78,-0.3v0v-6.27c0,-1.12 -0.16,-1.99667 -0.48,-2.63c-0.32,-0.62667 -0.88667,-0.94 -1.7,-0.94v0c-0.68,0 -1.26333,0.21667 -1.75,0.65c-0.48667,0.43333 -0.85667,1.02333 -1.11,1.77v0v7.42c0.28667,0.06667 0.54,0.15 0.76,0.25c0.22667,0.1 0.46333,0.23 0.71,0.39v0v1.04h-7.07v-1.04c0.44667,-0.23333 1.03333,-0.44667 1.76,-0.64v0v-9.76l-1.76,-0.22v-1.04c0.23333,-0.10667 0.53667,-0.20667 0.91,-0.3c0.37333,-0.1 0.77667,-0.19333 1.21,-0.28c0.44,-0.09333 0.88667,-0.17 1.34,-0.23c0.45333,-0.06 0.86667,-0.11 1.24,-0.15v0h0.9v2.75h0.03c0.37333,-0.74667 0.93333,-1.39 1.68,-1.93c0.74667,-0.54667 1.65333,-0.82 2.72,-0.82v0c0.69333,0 1.31667,0.08667 1.87,0.26c0.54667,0.16667 1.01333,0.46333 1.4,0.89c0.38,0.42667 0.67333,1 0.88,1.72c0.2,0.72 0.3,1.63 0.3,2.73v0v6.38c0.71333,0.12 1.3,0.33333 1.76,0.64zM179.53333,235.36583v0c0,-1.08667 0.16333,-2.06 0.49,-2.92c0.33333,-0.86 0.80667,-1.59333 1.42,-2.2c0.61333,-0.60667 1.35333,-1.07 2.22,-1.39c0.87333,-0.32 1.86,-0.48 2.96,-0.48v0c1.24667,0 2.32,0.17333 3.22,0.52c0.89333,0.34667 1.63,0.82667 2.21,1.44c0.58,0.61333 1.00333,1.35333 1.27,2.22c0.26667,0.86 0.4,1.79667 0.4,2.81v0c0,1.08667 -0.16,2.06 -0.48,2.92c-0.32,0.86 -0.78667,1.59333 -1.4,2.2c-0.61333,0.60667 -1.36,1.07 -2.24,1.39c-0.88,0.32 -1.87333,0.48 -2.98,0.48v0c-1.20667,0 -2.25333,-0.17333 -3.14,-0.52c-0.89333,-0.34667 -1.63333,-0.82667 -2.22,-1.44c-0.58667,-0.61333 -1.02,-1.35333 -1.3,-2.22c-0.28667,-0.86 -0.43,-1.79667 -0.43,-2.81zM183.66333,235.36583v0c0,0.8 0.05,1.53333 0.15,2.2c0.1,0.66667 0.27333,1.23 0.52,1.69c0.24667,0.46667 0.58333,0.82667 1.01,1.08c0.42667,0.26 0.98,0.39 1.66,0.39v0c0.38667,0 0.74,-0.09333 1.06,-0.28c0.32,-0.18667 0.59667,-0.49 0.83,-0.91c0.23333,-0.41333 0.40667,-0.96333 0.52,-1.65c0.11333,-0.68667 0.17,-1.52667 0.17,-2.52v0c0,-0.82 -0.04667,-1.55667 -0.14,-2.21c-0.1,-0.66 -0.27,-1.22 -0.51,-1.68c-0.24,-0.46667 -0.56333,-0.82667 -0.97,-1.08c-0.41333,-0.26 -0.93,-0.39 -1.55,-0.39v0c-0.46,0 -0.86,0.09333 -1.2,0.28c-0.34,0.18667 -0.62333,0.49 -0.85,0.91c-0.23333,0.41333 -0.40667,0.96333 -0.52,1.65c-0.12,0.68667 -0.18,1.52667 -0.18,2.52zM200.30333,236.21583h-1.17l-1.33,-5.17v-7.41c0.17333,-0.10667 0.44,-0.18333 0.8,-0.23c0.35333,-0.04667 0.72667,-0.07 1.12,-0.07c0.38667,0 0.75333,0.02333 1.1,0.07c0.34667,0.04667 0.62,0.12333 0.82,0.23v0v7.41zM197.48333,240.13583v0c0,-0.64 0.20667,-1.15333 0.62,-1.54c0.42,-0.39333 0.96667,-0.59 1.64,-0.59v0c0.68,0 1.23333,0.19667 1.66,0.59c0.42667,0.38667 0.64,0.9 0.64,1.54v0c0,0.64 -0.21333,1.15333 -0.64,1.54c-0.42667,0.38 -0.98,0.57 -1.66,0.57v0c-0.67333,0 -1.22,-0.19 -1.64,-0.57c-0.41333,-0.38667 -0.62,-0.9 -0.62,-1.54z"></path></g></g></g></svg>