<svg xmlns="http://www.w3.org/2000/svg" xmlns:xlink="http://www.w3.org/1999/xlink" width="500" zoomAndPan="magnify" viewBox="0 0 375 374.999991" height="500" preserveAspectRatio="xMidYMid meet" version="1.0"><defs><g/><clipPath id="4a25daab4c"><path d="M 86.304688 86.304688 L 288.695312 86.304688 L 288.695312 288.695312 L 86.304688 288.695312 Z M 86.304688 86.304688 " clip-rule="nonzero"/></clipPath><clipPath id="09be4e8c4b"><path d="M 187.5 86.304688 C 131.609375 86.304688 86.304688 131.609375 86.304688 187.5 C 86.304688 243.390625 131.609375 288.695312 187.5 288.695312 C 243.390625 288.695312 288.695312 243.390625 288.695312 187.5 C 288.695312 131.609375 243.390625 86.304688 187.5 86.304688 Z M 187.5 86.304688 " clip-rule="nonzero"/></clipPath><clipPath id="9b33beecfd"><path d="M 86.304688 86.304688 L 288.6875 86.304688 L 288.6875 288.6875 L 86.304688 288.6875 Z M 86.304688 86.304688 " clip-rule="nonzero"/></clipPath><clipPath id="10f88ed34b"><path d="M 187.496094 86.304688 C 131.609375 86.304688 86.304688 131.609375 86.304688 187.496094 C 86.304688 243.382812 131.609375 288.6875 187.496094 288.6875 C 243.382812 288.6875 288.6875 243.382812 288.6875 187.496094 C 288.6875 131.609375 243.382812 86.304688 187.496094 86.304688 Z M 187.496094 86.304688 " clip-rule="nonzero"/></clipPath></defs><g clip-path="url(#4a25daab4c)"><g clip-path="url(#09be4e8c4b)"><path fill="#c58820" d="M 86.304688 86.304688 L 288.695312 86.304688 L 288.695312 288.695312 L 86.304688 288.695312 Z M 86.304688 86.304688 " fill-opacity="1" fill-rule="nonzero"/></g></g><g clip-path="url(#9b33beecfd)"><g clip-path="url(#10f88ed34b)"><path stroke-linecap="butt" transform="matrix(0.75, 0, 0, 0.75, 86.303963, 86.303958)" fill="none" stroke-linejoin="miter" d="M 134.92285 0.000972223 C 60.40722 0.000972223 0.000966223 60.407226 0.000966223 134.922856 C 0.000966223 209.438486 60.40722 269.84474 134.92285 269.84474 C 209.43848 269.84474 269.844734 209.438486 269.844734 134.922856 C 269.844734 60.407226 209.43848 0.000972223 134.92285 0.000972223 Z M 134.92285 0.000972223 " stroke="#545454" stroke-width="4" stroke-opacity="1" stroke-miterlimit="4"/></g></g><g fill="#000000" fill-opacity="0.4"><g transform="translate(144.187877, 245.620589)"><g><path d="M 52.796875 -19.046875 L 74.703125 -73.09375 C 75.953125 -76.164062 76.828125 -78.570312 77.328125 -80.3125 C 77.828125 -82.050781 78.078125 -83.628906 78.078125 -85.046875 C 78.078125 -87.285156 77.390625 -88.859375 76.015625 -89.765625 C 74.648438 -90.679688 72.097656 -91.140625 68.359375 -91.140625 L 68.359375 -95.875 L 98.609375 -95.875 L 98.609375 -91.140625 C 96.703125 -90.890625 95.0625 -90.554688 93.6875 -90.140625 C 92.320312 -89.734375 91.117188 -89.15625 90.078125 -88.40625 C 89.046875 -87.65625 88.132812 -86.675781 87.34375 -85.46875 C 86.5625 -84.269531 85.796875 -82.800781 85.046875 -81.0625 L 51.296875 1.25 L 46.9375 1.25 L 14.8125 -76.328125 C 13.738281 -78.816406 12.679688 -80.972656 11.640625 -82.796875 C 10.597656 -84.628906 9.453125 -86.125 8.203125 -87.28125 C 6.960938 -88.445312 5.554688 -89.316406 3.984375 -89.890625 C 2.410156 -90.472656 0.539062 -90.847656 -1.625 -91.015625 L -1.625 -95.875 L 38.96875 -95.875 L 38.96875 -91.015625 C 36.644531 -91.015625 34.753906 -90.910156 33.296875 -90.703125 C 31.847656 -90.492188 30.707031 -90.160156 29.875 -89.703125 C 29.050781 -89.253906 28.472656 -88.695312 28.140625 -88.03125 C 27.804688 -87.363281 27.640625 -86.617188 27.640625 -85.796875 C 27.640625 -84.628906 27.847656 -83.273438 28.265625 -81.734375 C 28.679688 -80.203125 29.46875 -77.984375 30.625 -75.078125 Z M 52.796875 -19.046875 "/></g></g></g><g fill="#ffffff" fill-opacity="1"><g transform="translate(138.685001, 240.117706)"><g><path d="M 52.796875 -19.046875 L 74.703125 -73.09375 C 75.953125 -76.164062 76.828125 -78.570312 77.328125 -80.3125 C 77.828125 -82.050781 78.078125 -83.628906 78.078125 -85.046875 C 78.078125 -87.285156 77.390625 -88.859375 76.015625 -89.765625 C 74.648438 -90.679688 72.097656 -91.140625 68.359375 -91.140625 L 68.359375 -95.875 L 98.609375 -95.875 L 98.609375 -91.140625 C 96.703125 -90.890625 95.0625 -90.554688 93.6875 -90.140625 C 92.320312 -89.734375 91.117188 -89.15625 90.078125 -88.40625 C 89.046875 -87.65625 88.132812 -86.675781 87.34375 -85.46875 C 86.5625 -84.269531 85.796875 -82.800781 85.046875 -81.0625 L 51.296875 1.25 L 46.9375 1.25 L 14.8125 -76.328125 C 13.738281 -78.816406 12.679688 -80.972656 11.640625 -82.796875 C 10.597656 -84.628906 9.453125 -86.125 8.203125 -87.28125 C 6.960938 -88.445312 5.554688 -89.316406 3.984375 -89.890625 C 2.410156 -90.472656 0.539062 -90.847656 -1.625 -91.015625 L -1.625 -95.875 L 38.96875 -95.875 L 38.96875 -91.015625 C 36.644531 -91.015625 34.753906 -90.910156 33.296875 -90.703125 C 31.847656 -90.492188 30.707031 -90.160156 29.875 -89.703125 C 29.050781 -89.253906 28.472656 -88.695312 28.140625 -88.03125 C 27.804688 -87.363281 27.640625 -86.617188 27.640625 -85.796875 C 27.640625 -84.628906 27.847656 -83.273438 28.265625 -81.734375 C 28.679688 -80.203125 29.46875 -77.984375 30.625 -75.078125 Z M 52.796875 -19.046875 "/></g></g></g></svg>